<?xml version="1.0" standalone="no"?>
<!DOCTYPE svg PUBLIC "-//W3C//DTD SVG 20010904//EN"
 "http://www.w3.org/TR/2001/REC-SVG-20010904/DTD/svg10.dtd">
<svg version="1.0" xmlns="http://www.w3.org/2000/svg"
 width="310.000000pt" height="310.000000pt" viewBox="0 0 310.000000 310.000000"
 preserveAspectRatio="xMidYMid meet">

<g transform="translate(0.000000,310.000000) scale(0.100000,-0.100000)"
fill="#000000" stroke="none">
<path d="M260 3084 c-77 -21 -153 -74 -194 -137 -70 -106 -67 -25 -64 -1423
l3 -1259 26 -56 c37 -79 90 -133 167 -171 l67 -33 1245 -3 c1108 -2 1253 -1
1317 13 125 28 218 116 253 242 19 66 20 107 20 1287 0 1099 -2 1226 -16 1285
-31 123 -109 208 -229 251 -61 22 -2514 26 -2595 4z m1826 -905 c108 -33 179
-91 226 -183 97 -189 43 -403 -132 -526 -23 -17 -45 24 178 -338 45 -73 82
-138 82 -144 0 -28 -118 -88 -175 -88 -41 0 -123 34 -161 67 -12 10 -70 97
-129 193 -59 96 -117 191 -130 210 -23 35 -133 214 -174 283 l-23 37 157 0
c181 0 213 9 240 67 22 45 8 101 -32 132 -23 19 -40 21 -145 21 -140 0 -208
16 -271 64 -49 38 -107 141 -107 192 l0 34 264 0 c240 0 270 -2 332 -21z
m-520 -626 c175 -351 321 -641 322 -645 7 -16 -185 -8 -237 9 -99 31 -118 58
-270 362 l-138 276 -85 -169 -85 -170 -16 49 c-26 74 -62 129 -117 178 l-51
44 149 299 c171 345 201 404 206 404 2 0 147 -287 322 -637z m-665 -309 c56
-29 95 -110 83 -172 -14 -68 -94 -132 -166 -132 -75 1 -157 83 -158 158 0 67
57 144 122 164 29 8 84 0 119 -18z"/>
</g>
</svg>
