<?xml version="1.0" standalone="no"?>
<!DOCTYPE svg PUBLIC "-//W3C//DTD SVG 20010904//EN"
 "http://www.w3.org/TR/2001/REC-SVG-20010904/DTD/svg10.dtd">
<svg version="1.0" xmlns="http://www.w3.org/2000/svg"
 width="192.000000pt" height="192.000000pt" viewBox="0 0 192.000000 192.000000"
 preserveAspectRatio="xMidYMid meet">

<g transform="translate(0.000000,192.000000) scale(0.100000,-0.100000)"
fill="#000000" stroke="none">
<path d="M0 960 l0 -960 960 0 960 0 0 960 0 960 -960 0 -960 0 0 -960z m1200
309 c153 -35 202 -230 82 -330 l-30 -26 70 -112 c61 -98 69 -115 56 -127 -37
-37 -117 -33 -155 8 -12 13 -66 95 -121 183 l-99 160 81 3 c87 3 116 17 116
57 0 34 -20 45 -80 45 -75 0 -121 15 -153 48 -27 28 -50 85 -39 96 9 10 225 6
272 -5z m-235 -309 c85 -170 155 -313 155 -316 0 -4 -25 -4 -55 -1 -94 10
-110 25 -188 180 l-69 138 -41 -81 -41 -80 -13 33 c-8 17 -28 47 -46 65 l-31
32 84 170 c47 94 86 170 87 170 2 0 73 -139 158 -310z m-315 -150 c49 -26 39
-116 -17 -139 -82 -34 -146 83 -76 137 20 14 67 16 93 2z"/>
</g>
</svg>
