<?xml version="1.0" standalone="no"?>
<!DOCTYPE svg PUBLIC "-//W3C//DTD SVG 20010904//EN"
 "http://www.w3.org/TR/2001/REC-SVG-20010904/DTD/svg10.dtd">
<svg version="1.0" xmlns="http://www.w3.org/2000/svg"
 width="400.000000pt" height="400.000000pt" viewBox="0 0 400.000000 400.000000"
 preserveAspectRatio="xMidYMid meet">
<metadata>
Created by potrace 1.14, written by Peter Selinger 2001-2017
</metadata>
<g transform="translate(0.000000,400.000000) scale(0.100000,-0.100000)"
fill="#000000" stroke="none">
<path d="M1887 3092 c5 -60 31 -148 47 -165 7 -7 11 -18 8 -25 -2 -6 1 -12 6
-12 6 0 13 -9 17 -19 14 -45 171 -182 198 -173 4 1 7 -3 7 -9 0 -5 5 -7 10 -4
6 3 10 1 10 -6 0 -7 3 -9 6 -6 4 3 14 2 24 -3 9 -5 30 -12 46 -15 16 -2 40 -7
54 -10 14 -3 118 -6 233 -7 158 -1 210 -5 218 -15 6 -7 16 -13 22 -13 16 0 65
-56 81 -93 14 -36 16 -123 3 -144 -5 -7 -5 -13 -2 -13 3 0 -5 -12 -19 -27 -14
-15 -22 -31 -19 -36 3 -6 2 -7 -4 -4 -5 4 -19 -2 -29 -12 -34 -31 -93 -37
-366 -36 -185 0 -268 -3 -268 -10 0 -6 8 -20 18 -31 9 -11 26 -35 36 -54 11
-19 22 -37 25 -40 4 -3 15 -22 26 -42 11 -21 24 -38 29 -38 5 0 7 -3 3 -6 -3
-3 -1 -11 4 -18 12 -14 35 -51 179 -284 62 -101 118 -189 124 -195 6 -7 12
-19 14 -26 4 -17 72 -123 85 -132 5 -3 8 -8 6 -10 -1 -2 10 -23 24 -46 15 -24
27 -47 27 -52 0 -5 4 -11 9 -13 4 -1 19 -22 32 -45 94 -164 187 -282 210 -267
5 3 9 1 9 -5 0 -10 103 -63 117 -60 4 1 15 -1 23 -4 29 -13 105 -14 155 -2 60
14 115 37 115 48 0 5 4 6 9 3 9 -6 45 18 92 61 l27 24 -22 39 c-18 32 -48 81
-167 270 -5 8 -41 67 -80 130 -39 63 -75 117 -80 118 -5 2 -7 8 -4 12 3 5 -3
18 -15 30 -11 11 -18 20 -15 20 3 0 -8 20 -25 44 -16 25 -30 49 -30 54 0 5 -6
15 -14 21 -8 7 -24 31 -36 54 l-22 41 24 18 c13 9 28 18 34 18 7 0 26 13 43
29 17 16 31 26 31 23 0 -11 90 93 96 110 3 10 9 18 13 18 8 0 70 127 75 153 2
7 6 19 9 27 13 34 29 147 31 210 2 95 -44 300 -67 300 -6 0 -7 3 -4 6 9 9 -49
115 -75 137 -11 9 -18 17 -15 17 4 0 -11 17 -31 39 -20 21 -39 37 -40 35 -2
-1 -18 11 -34 27 -28 27 -36 31 -54 28 -4 0 -10 4 -13 9 -7 12 -103 56 -146
67 -52 14 -59 15 -100 21 -22 4 -245 8 -496 9 l-457 4 5 -47z"/>
<path d="M1433 3098 c-34 -59 -338 -673 -338 -683 0 -5 -6 -15 -13 -20 -7 -6
-14 -20 -15 -33 0 -12 -4 -22 -8 -22 -7 0 -55 -94 -59 -112 0 -4 -16 -35 -35
-69 -19 -33 -32 -65 -29 -70 3 -5 0 -9 -5 -9 -6 0 -11 -7 -11 -15 0 -8 -4 -15
-8 -15 -9 0 -36 -59 -35 -77 1 -7 -3 -13 -8 -13 -5 0 -9 -7 -9 -15 0 -8 -3
-15 -7 -15 -5 0 -13 -11 -20 -25 -10 -23 -9 -27 15 -39 15 -8 36 -23 47 -33
11 -10 37 -33 58 -50 21 -18 34 -33 30 -33 -4 0 3 -9 15 -20 27 -26 99 -147
107 -182 4 -16 11 -28 15 -28 4 0 7 -6 7 -12 -1 -7 3 -35 7 -63 8 -42 10 -46
17 -27 5 12 8 25 8 28 0 4 3 10 8 13 9 7 124 236 124 248 0 4 6 15 13 23 15
17 71 135 65 135 -2 0 6 13 18 29 13 16 20 32 17 37 -3 5 -2 9 3 9 4 0 14 14
21 30 14 31 32 40 32 16 0 -7 7 -19 15 -26 8 -7 15 -21 15 -30 0 -10 4 -20 8
-22 4 -1 25 -39 46 -83 22 -44 46 -88 54 -97 8 -10 12 -18 8 -18 -5 0 25 -64
114 -241 5 -9 56 -111 114 -225 105 -208 126 -241 188 -287 39 -29 128 -79
128 -71 0 2 8 0 18 -5 31 -17 85 -22 254 -27 l168 -4 -12 25 c-6 14 -15 25
-20 25 -4 0 -7 3 -7 8 3 15 -23 72 -34 72 -6 0 -8 3 -4 6 7 8 -41 106 -57 116
-6 4 -7 8 -3 8 9 0 -22 61 -36 71 -5 3 -8 10 -8 15 2 19 -11 44 -21 44 -6 0
-9 3 -5 6 7 7 -72 167 -84 172 -5 2 -7 8 -3 13 3 5 -3 21 -14 37 -10 15 -24
42 -31 60 -8 17 -17 32 -22 32 -5 0 -8 3 -7 8 5 13 -24 72 -35 72 -6 0 -8 3
-4 6 3 3 -23 64 -59 134 -35 70 -64 132 -64 138 0 6 -7 15 -16 20 -9 5 -16 13
-16 18 0 19 -31 84 -39 84 -5 0 -8 3 -7 8 4 14 -14 52 -24 52 -6 0 -9 3 -5 6
7 7 -61 145 -77 156 -6 4 -8 8 -3 8 7 0 -40 100 -52 110 -3 3 -7 14 -9 24 -2
10 -10 25 -18 33 -8 8 -14 22 -14 32 0 9 -9 27 -20 39 -11 12 -20 25 -20 29
-1 16 -24 73 -31 73 -6 0 -18 29 -23 52 0 4 -10 18 -21 30 -10 13 -18 23 -16
23 2 0 1 10 -3 23 -4 12 -12 22 -17 22 -5 0 -8 4 -6 8 2 9 -54 134 -65 142 -3
3 -14 24 -23 48 -10 23 -21 42 -26 42 -5 0 -8 3 -7 8 4 12 -24 72 -34 72 -5 0
-7 4 -3 9 3 5 1 12 -5 16 -6 4 -8 11 -5 16 4 5 4 9 2 9 -3 0 -14 -15 -24 -32z"/>
<path d="M645 1481 c-11 -5 -23 -7 -27 -5 -4 3 -9 0 -13 -6 -3 -5 -14 -10 -23
-10 -29 -1 -128 -103 -116 -121 3 -5 1 -9 -5 -9 -23 0 -42 -117 -28 -180 30
-146 188 -252 325 -218 20 4 46 11 57 13 11 3 21 9 23 15 2 6 7 8 12 5 16 -10
91 75 116 131 25 57 33 129 19 176 -11 37 -38 92 -52 106 -7 7 -16 18 -20 25
-12 18 -75 60 -90 60 -7 0 -13 4 -13 9 0 5 -4 7 -9 3 -5 -3 -12 -1 -15 3 -7
11 -115 13 -141 3z"/>
</g>
</svg>
